<svg class="slack-logo" version="1.1" id="Layer_1" xmlns="http://www.w3.org/2000/svg" xmlns:xlink="http://www.w3.org/1999/xlink" x="0px" y="0px" viewBox="0 0 141.7 141.7" enable-background="new 0 0 141.7 141.7" xml:space="preserve">
    <g>
        <rect x="62.4" y="62.1" transform="matrix(-0.3176 -0.9482 0.9482 -0.3176 26.176 160.5702)" fill="#FFFFFF" width="17" height="17.6"/>
        <g>
            <rect x="62.4" y="62.1" transform="matrix(-0.3176 -0.9482 0.9482 -0.3176 26.1761 160.5702)" fill="#FFFFFF" width="17" height="17.6"/>
            <path fill="#FFFFFF" d="M128.2,53.7c-12.9-43-31.5-53-74.5-40.1c-43,12.9-53,31.5-40.1,74.5c12.9,43,31.5,53,74.5,40.1
			C131,115.3,141,96.6,128.2,53.7z M106.4,81.6l-8.1,2.7l2.8,8.4c1.1,3.4-0.7,7.1-4.1,8.2c-0.7,0.2-1.5,0.4-2.2,0.3
			c-2.6-0.1-5.1-1.8-6-4.4L86,88.4L69.3,94l2.8,8.4c1.1,3.4-0.7,7.1-4.1,8.2c-0.7,0.2-1.5,0.4-2.2,0.3c-2.6-0.1-5.1-1.8-6-4.4
			L57,98.1l-8.1,2.7c-0.7,0.2-1.5,0.4-2.2,0.3c-2.6-0.1-5.1-1.8-6-4.4c-1.1-3.4,0.7-7.1,4.1-8.2l8.1-2.7l-5.4-16.1l-8.1,2.7
			c-0.7,0.2-1.5,0.4-2.2,0.3c-2.6-0.1-5.1-1.8-6-4.4c-1.1-3.4,0.7-7.1,4.1-8.2l8.1-2.7l-2.8-8.4c-1.1-3.4,0.7-7.1,4.1-8.2
			c3.4-1.1,7.1,0.7,8.2,4.1l2.8,8.4l16.7-5.6l-2.8-8.4c-1.1-3.4,0.7-7.1,4.1-8.2c3.4-1.1,7.1,0.7,8.2,4.1l2.8,8.4l8.1-2.7
			c3.4-1.1,7.1,0.7,8.2,4.1c1.1,3.4-0.7,7.1-4.1,8.2l-8.1,2.7L94.2,72l8.1-2.7c3.4-1.1,7.1,0.7,8.2,4.1
			C111.6,76.8,109.8,80.4,106.4,81.6z"/>
        </g>
    </g>
</svg>
